<?xml version="1.0" standalone="no"?>
<!DOCTYPE svg PUBLIC "-//W3C//DTD SVG 1.1//EN" "http://www.w3.org/Graphics/SVG/1.1/DTD/svg11.dtd" >
<svg xmlns="http://www.w3.org/2000/svg">
<metadata></metadata>
<defs>
<font id="neosansitalic" horiz-adv-x="1187" >
<font-face units-per-em="2048" ascent="1638" descent="-410" />
<missing-glyph horiz-adv-x="440" />
<glyph horiz-adv-x="2048" />
<glyph horiz-adv-x="2048" />
<glyph unicode="&#xd;" horiz-adv-x="2048" />
<glyph unicode=" "  horiz-adv-x="440" />
<glyph unicode="&#x09;" horiz-adv-x="440" />
<glyph unicode="&#xa0;" horiz-adv-x="440" />
<glyph unicode="&#x26;" horiz-adv-x="1304" d="M158 279q0 40 4 63l4 12q21 119 100.5 208t288.5 210q-3 5 -22.5 33t-25 36.5t-23 36t-24.5 39.5t-21.5 38t-20.5 41t-16 39.5t-14 43t-7.5 40.5t-3.5 42q0 17 4 45l2 13q51 313 446 313q138 0 232 -63.5t94 -188.5q0 -26 -6 -61l-2 -13q-21 -124 -106.5 -211 t-286.5 -198l-78 -43q72 -98 153 -205l199 -262q140 171 186 426l5 22q7 39 38 39h25q27 0 27 -26q0 -2 -1 -6.5t-1 -6.5l-4 -22q-54 -299 -226 -492l146 -194q4 -4 4 -9q0 -7 -6.5 -12.5t-14.5 -5.5h-55q-21 0 -31 14l-104 138q-188 -164 -453 -164q-80 0 -151 17t-129 51 t-91.5 91.5t-33.5 131.5zM252 283q0 -213 326 -213q232 0 393 145l-207 272q-114 152 -164 222q-124 -71 -187 -117.5t-101.5 -103t-51.5 -134.5l-4 -12q-4 -20 -4 -59zM469 1161q0 -44 13 -88.5t43 -95.5t48.5 -78.5t59.5 -83.5l86 51q191 114 256 179t80 161l2 13 q6 30 6 59q0 95 -66.5 133.5t-181.5 38.5q-142 0 -230 -52.5t-110 -178.5l-2 -13q-4 -32 -4 -45z" />
<glyph unicode="," horiz-adv-x="344" d="M16 -190q0 2 9 24l168 344q19 39 49 39h39q20 0 20 -16q0 -7 -8 -23l-189 -344q-20 -39 -47 -39h-24q-17 0 -17 15z" />
<glyph unicode="-" horiz-adv-x="704" d="M205 553v6l4 16q3 15 15.5 26t29.5 11h414q32 0 32 -30v-7l-4 -16q-7 -33 -45 -33h-413q-15 0 -24 7.5t-9 19.5z" />
<glyph unicode="." horiz-adv-x="344" d="M131 20v7l27 151q3 15 17.5 27t29.5 12h12q13 0 22 -9.5t9 -23.5v-6l-27 -151q-3 -17 -16.5 -28t-28.5 -11h-12q-14 0 -23.5 8.5t-9.5 23.5z" />
<glyph unicode="0" d="M221 395q0 64 17 164l71 404q102 569 572 569q184 0 285.5 -103t101.5 -301q0 -65 -17 -165l-71 -404q-52 -291 -194 -431t-378 -140q-179 0 -283 103t-104 304zM311 399q0 -164 80 -246.5t232 -82.5q180 0 302.5 125t164.5 364l71 404q17 104 17 165q0 322 -312 322 q-183 0 -304 -127.5t-163 -359.5l-71 -404q-17 -100 -17 -160z" />
<glyph unicode="1" d="M477 1300v7l6 30q5 21 33 33l348 152h33q13 0 23 -10t10 -23v-6l-256 -1444q-3 -16 -14.5 -27.5t-26.5 -11.5h-21q-28 0 -28 31v8l245 1384l-309 -131q-24 -8 -28 -8q-15 0 -15 16z" />
<glyph unicode="2" d="M176 35v4v2l21 125q15 91 37 155t67 131t120 129.5t189 131.5l234 141q159 97 217 158.5t76 161.5q8 58 8 75q0 105 -78 151t-260 46q-149 0 -318 -31q-2 0 -6 -1t-6 -1q-26 0 -26 25v6v2l4 22q5 25 45 33q147 31 323 31q420 0 420 -281q0 -23 -8 -77q-23 -128 -93 -206 t-253 -188l-234 -141q-88 -53 -149 -101t-98.5 -88t-61.5 -89.5t-35 -89.5t-22 -105l-15 -82h709q37 0 37 -25v-4v-2l-4 -22q-5 -31 -47 -31h-760q-14 0 -23.5 10.5t-9.5 24.5z" />
<glyph unicode="3" d="M219 51v2v2l2 13q6 32 39 32h6h2q156 -26 289 -26q204 0 320.5 83.5t152.5 264.5l8 41q6 27 6 55q0 96 -60 167t-185 71h-383q-15 0 -24 8t-9 22v5v2l2 14q3 17 16 27t31 10h383q84 0 150 29t104.5 75.5t59 92.5t28.5 92l4 24q8 62 8 82q0 119 -85 163t-285 44 q-104 0 -299 -31h-2h-6q-12 0 -19.5 7.5t-7.5 19.5v4v2l2 16q1 13 14 23.5t29 13.5q182 31 305 31q221 0 336 -68t115 -223q0 -14 -9 -84l-4 -24q-19 -108 -86 -198.5t-188 -139.5q81 -39 121.5 -114.5t40.5 -158.5q0 -32 -6 -59l-9 -41q-45 -227 -187.5 -330.5 t-395.5 -103.5q-151 0 -293 30q-31 7 -31 33z" />
<glyph unicode="4" d="M178 535q0 52 45 104l721 842q26 32 50.5 41.5t54.5 9.5q32 0 53.5 -18.5t21.5 -55.5q0 -16 -2 -24l-159 -906h204q14 0 24.5 -8.5t10.5 -21.5v-4v-2l-4 -19q-5 -31 -45 -31h-205l-71 -403q-8 -39 -37 -39h-25q-29 0 -29 31v6v2l72 403h-563q-55 0 -86 26.5t-31 66.5z M268 547q0 -19 37 -19h567l158 893v2v4q0 7 -8 7t-18 -13l-705 -821q-31 -31 -31 -53z" />
<glyph unicode="5" d="M180 57v6l4 23q6 27 33 27q10 0 16 -2q145 -37 304 -37q200 0 332.5 93.5t160.5 272.5l8 52q6 43 6 90q0 123 -105.5 175t-336.5 52h-217q-15 0 -25 9.5t-10 23.5q0 8 2 12l158 633q3 14 18 24.5t29 10.5h668q15 0 25 -7t10 -20v-6l-5 -23q-5 -28 -45 -28h-620l-133 -545 h159q117 0 206 -14.5t148 -40t96.5 -65t53 -86t15.5 -105.5q0 -52 -7 -90l-8 -52q-35 -221 -191.5 -336.5t-406.5 -115.5q-147 0 -309 37q-33 8 -33 32z" />
<glyph unicode="6" d="M225 350q0 64 17 168l84 481q50 284 192.5 408.5t403.5 124.5q146 0 319 -39q41 -10 41 -31q0 -4 -2 -6l-4 -20q-1 -13 -12.5 -21t-26.5 -8q-10 0 -16 2q-156 37 -314 37q-212 0 -331 -102t-160 -345l-21 -120q190 47 398 47q81 0 148.5 -18t121 -55t83.5 -100t30 -147 q0 -101 -22 -192.5t-67.5 -169.5t-112 -135t-160 -89t-206.5 -32q-188 0 -285.5 93t-97.5 269zM315 350q0 -149 72 -214.5t227 -65.5q227 0 348 145.5t121 384.5q0 136 -78 189t-227 53q-97 0 -209.5 -15t-189.5 -34l-47 -275q-17 -112 -17 -168z" />
<glyph unicode="7" d="M295 23q0 17 12 32l885 1350q4 8 4 14q0 15 -14 15h-766q-15 0 -24 9t-9 21v9l4 16q7 33 45 33h768q38 0 63 -27t25 -65q0 -32 -16 -56l-879 -1354q-4 -7 -18 -13.5t-23 -6.5h-30q-27 0 -27 23z" />
<glyph unicode="8" d="M199 324q0 36 6 79l10 62q15 96 86 191.5t186 142.5q-77 34 -119 106.5t-42 155.5q0 35 4 53l8 45q66 373 545 373q195 0 307.5 -81.5t112.5 -223.5q0 -24 -7 -68l-8 -45q-21 -117 -92.5 -200t-175.5 -119q72 -42 115 -121t43 -162q0 -19 -4 -47l-11 -62 q-34 -209 -179.5 -312t-373.5 -103q-189 0 -300 88.5t-111 247.5zM295 326q0 -252 330 -252q188 0 301 83.5t141 245.5l10 62q4 28 4 45q0 33 -6.5 64.5t-24 65t-45 59t-73 41.5t-103.5 16h-167q-81 0 -148.5 -31.5t-108 -79t-64 -94t-30.5 -86.5l-10 -62q-6 -41 -6 -77z M422 1059q0 -42 12.5 -78t40.5 -68t80 -50.5t123 -18.5h168q83 0 148.5 25t105 66.5t62 86t30.5 92.5l8 45q6 35 6 64q0 223 -340 223q-380 0 -432 -287l-8 -45q-4 -18 -4 -55z" />
<glyph unicode="9" d="M207 57v6l4 21q3 13 14 21t25 8q10 0 16 -2q156 -37 314 -37q212 0 331 101.5t160 344.5l21 121q-190 -47 -398 -47q-81 0 -148.5 18t-121 54.5t-83.5 99.5t-30 147q0 128 35.5 238t103.5 196t178.5 135.5t250.5 49.5q188 0 285.5 -93.5t97.5 -269.5q0 -64 -17 -168 l-84 -481q-50 -284 -192.5 -408t-403.5 -124q-146 0 -319 39q-39 10 -39 30zM403 920q0 -136 78.5 -189t227.5 -53q97 0 210.5 15t188.5 34l47 274q16 106 16 168q0 149 -72 215t-227 66q-227 0 -348 -145.5t-121 -384.5z" />
<glyph unicode=";" horiz-adv-x="364" d="M-8 -190q0 4 8 24l168 344q19 39 49 39h39q20 0 20 -16q0 -7 -8 -23l-188 -344q-20 -39 -47 -39h-25q-16 0 -16 15zM299 913v7l27 151q3 15 17.5 27t29.5 12h12q13 0 22 -9.5t9 -23.5v-6l-27 -151q-3 -17 -16.5 -28t-28.5 -11h-12q-14 0 -23.5 8.5t-9.5 23.5z" />
<glyph unicode="A" horiz-adv-x="1267" d="M82 18q0 7 8 27l664 1387q49 100 151 100q49 0 78 -26t35 -72l176 -1389v-8q0 -43 -39 -43h-20q-23 0 -27 26l-74 555h-590l-266 -555q-5 -9 -17 -17.5t-22 -8.5h-30q-12 0 -19.5 6.5t-7.5 17.5zM483 666h543l-92 741q-2 16 -13 28.5t-26 12.5q-38 0 -55 -39z" />
<glyph unicode="B" d="M170 29q0 2 1 6t1 6l252 1440q3 15 17.5 26t29.5 13q168 12 315 12q90 0 162.5 -8.5t136.5 -29.5t107 -54.5t67.5 -84t24.5 -116.5q0 -35 -6 -78l-4 -22q-49 -264 -303 -344q94 -35 144 -108.5t50 -170.5q0 -42 -4 -65l-6 -35q-15 -88 -49 -157.5t-83 -115.5 t-105.5 -77.5t-127 -48.5t-137.5 -24t-145 -7q-161 0 -305 16q-33 3 -33 27zM268 80q172 -12 254 -12q77 0 141.5 7.5t134.5 30t121 59.5t91 101t55 150l6 35q6 37 6 69q0 236 -319 236h-371zM403 844h371q103 0 180 23.5t122.5 67t70.5 92.5t37 112l4 22q6 37 6 66 q0 57 -22.5 98t-59 65.5t-94 38.5t-115.5 18.5t-137 4.5q-54 0 -154.5 -4t-103.5 -4z" />
<glyph unicode="C" horiz-adv-x="1099" d="M215 434q0 86 18 191l48 270q21 122 56 220t80.5 167t99 118t116.5 77.5t126.5 41.5t135.5 13q165 0 350 -21q13 -2 23 -9.5t10 -20.5v-4l-4 -25q-5 -25 -31 -25h-8h-4q-171 19 -352 19q-411 0 -508 -551l-47 -270q-19 -117 -19 -193q0 -358 332 -358q187 0 358 18h4h9 q22 0 22 -16v-8l-4 -25q-3 -14 -16.5 -23.5t-28.5 -11.5q-183 -20 -358 -20q-84 0 -155 24t-129 74.5t-91 139.5t-33 208z" />
<glyph unicode="D" horiz-adv-x="1255" d="M172 37v6l252 1434q3 13 15 24.5t26 14.5q98 16 340 16q113 0 203 -26.5t157.5 -81t103.5 -145t36 -212.5q0 -87 -17 -180l-45 -254q-31 -175 -94 -300.5t-156 -200.5t-206 -109.5t-255 -34.5q-242 0 -333 16q-12 1 -19.5 11t-7.5 22zM268 76q117 -8 279 -8 q111 0 205 29.5t175.5 94t139.5 176t86 265.5l45 254q19 108 19 180q0 88 -21 155t-57.5 110t-91.5 70.5t-117 38.5t-139 11q-99 0 -283 -12z" />
<glyph unicode="E" horiz-adv-x="1091" d="M199 174q0 25 6 55l186 1063q22 129 90.5 179.5t198.5 50.5h528q33 0 33 -29v-6l-2 -17q-1 -15 -14 -23.5t-31 -8.5h-528q-86 0 -127.5 -28.5t-57.5 -117.5l-80 -450h686q15 0 25 -7t10 -20v-6l-4 -21q-3 -15 -15.5 -24.5t-29.5 -9.5h-686l-92 -525q-4 -18 -4 -49 q0 -57 32.5 -76.5t102.5 -19.5h528q33 0 33 -27v-6l-2 -16q-1 -15 -14.5 -25t-30.5 -10h-528q-102 0 -157.5 43.5t-55.5 130.5z" />
<glyph unicode="F" horiz-adv-x="1060" d="M170 31v8l221 1253q23 127 90 178.5t199 51.5h528q14 0 23.5 -9t9.5 -22v-6l-2 -17q-3 -30 -45 -30h-528q-82 0 -125.5 -28.5t-59.5 -117.5l-80 -450h686q15 0 25 -9t10 -22v-6l-4 -21q-6 -30 -45 -30h-686l-127 -715q-3 -16 -14.5 -27.5t-26.5 -11.5h-20q-13 0 -21 9 t-8 22z" />
<glyph unicode="G" horiz-adv-x="1204" d="M215 444q0 87 18 189l46 254q27 152 79 269t113.5 186.5t138.5 113.5t148 60t149 16q184 0 365 -21q28 -3 28 -26v-6l-2 -21q-3 -31 -36 -31h-9h-4q-214 21 -356 21q-65 0 -126 -16.5t-124.5 -57t-115.5 -103t-94 -161t-64 -223.5l-45 -254q-19 -114 -19 -195 q0 -189 88 -276.5t256 -87.5q167 0 316 18l114 651q3 17 14.5 28t26.5 11h21q28 0 28 -30v-7v-2l-120 -690q-3 -15 -16 -26t-27 -13q-217 -26 -371 -26q-194 0 -307 115.5t-113 340.5z" />
<glyph unicode="H" horiz-adv-x="1325" d="M170 31v8l256 1444q3 16 14.5 27.5t26.5 11.5h20q13 0 21 -9t8 -22v-8l-110 -627h819l110 627q8 39 41 39h19q28 0 28 -31v-8l-256 -1444q-8 -39 -41 -39h-18q-29 0 -29 31v8l129 733h-819l-129 -733q-3 -16 -14.5 -27.5t-26.5 -11.5h-20q-13 0 -21 9t-8 22z" />
<glyph unicode="I" horiz-adv-x="458" d="M190 31v8l256 1444q3 16 14.5 27.5t26.5 11.5h21q13 0 21 -9t8 -22v-8l-256 -1444q-3 -16 -15 -27.5t-26 -11.5h-21q-13 0 -21 9t-8 22z" />
<glyph unicode="J" horiz-adv-x="458" d="M-156 -371l4 21q5 31 46 31h28q126 0 172 37.5t68 158.5l284 1606q3 16 14.5 27.5t26.5 11.5h21q13 0 21 -9t8 -22v-8l-285 -1606q-27 -154 -100 -215t-242 -61h-29q-37 0 -37 22v6z" />
<glyph unicode="K" horiz-adv-x="1114" d="M170 31v8l256 1444q3 15 16.5 27t28.5 12h12q13 0 23 -10t10 -23v-6l-117 -656l818 680q29 23 51 23q16 0 26.5 -11t10.5 -24q0 -21 -27 -45l-803 -666l574 -723q12 -15 12 -30q0 -14 -11.5 -24.5t-29.5 -10.5q-34 0 -47 16l-586 742l-127 -715q-3 -16 -14.5 -27.5 t-26.5 -11.5h-20q-13 0 -21 9t-8 22z" />
<glyph unicode="L" horiz-adv-x="989" d="M199 168q0 26 6 61l221 1254q3 16 14.5 27.5t26.5 11.5h20q13 0 21 -9t8 -22v-6v-2l-221 -1254q-6 -34 -6 -57q0 -53 31 -70.5t106 -17.5h467q33 0 33 -29v-2v-2l-2 -16q-1 -15 -14.5 -25t-30.5 -10h-467q-213 0 -213 168z" />
<glyph unicode="M" horiz-adv-x="1495" d="M170 31v8l246 1395q18 98 112 98q69 0 90 -64l228 -749q9 -27 22 -27t31 27l490 747q25 38 50 52t68 14q32 0 55 -22t23 -58q0 -12 -2 -18l-246 -1395q-3 -16 -15 -27.5t-26 -11.5h-22q-13 0 -21 9t-8 22v8l246 1395v2q0 10 -12 10q-3 0 -5.5 -2t-4.5 -4t-5 -6.5t-4 -6.5 l-497 -763q-46 -66 -109 -66q-64 0 -84 66l-227 763q-2 6 -8.5 12.5t-12.5 6.5q-16 0 -18 -12l-246 -1395q-3 -16 -14.5 -27.5t-26.5 -11.5h-18q-13 0 -21 9t-8 22z" />
<glyph unicode="N" horiz-adv-x="1333" d="M170 31v8l246 1393q10 52 42 76t70 24q71 0 93 -64l446 -1380q3 -14 12 -14q2 0 8 5.5t7 10.5l245 1393q3 16 14 27.5t25 11.5h25q29 0 29 -31v-8l-246 -1393q-9 -48 -39 -75t-70 -27t-61 14t-33 51l-446 1379q-3 14 -19 14q-9 0 -12 -14l-246 -1393q-3 -16 -14.5 -27.5 t-26.5 -11.5h-20q-13 0 -21 9t-8 22z" />
<glyph unicode="O" horiz-adv-x="1294" d="M215 442q0 86 18 191l46 254q31 177 92 304.5t145.5 200.5t183 106.5t218.5 33.5q199 0 313.5 -115t114.5 -342q0 -77 -19 -188l-45 -254q-31 -172 -91.5 -298t-145 -201t-183.5 -110.5t-217 -35.5q-199 0 -314.5 113t-115.5 341zM305 438q0 -195 92 -279.5t262 -84.5 q201 0 341 135.5t192 423.5l45 254q18 108 18 192q0 102 -25.5 174.5t-74.5 114t-111 60t-143 18.5q-98 0 -179 -28.5t-151.5 -91.5t-122 -173.5t-79.5 -265.5l-45 -254q-19 -117 -19 -195z" />
<glyph unicode="P" horiz-adv-x="1105" d="M170 31v6v2l256 1444q3 14 15.5 26t25.5 13q180 10 278 10q238 0 366 -83t128 -247q0 -45 -8 -86l-6 -35q-41 -234 -197 -336t-432 -102q-113 0 -227 8l-109 -612q-3 -16 -14.5 -27.5t-26.5 -11.5h-20q-13 0 -21 9t-8 22zM383 731q126 -8 221 -8q238 0 368 85t163 273 l6 35q8 41 8 86q0 137 -102.5 193.5t-315.5 56.5q-135 0 -223 -6z" />
<glyph unicode="Q" horiz-adv-x="1294" d="M215 442q0 86 18 191l46 254q31 177 92 304.5t145.5 200.5t183 106.5t218.5 33.5q199 0 313.5 -115t114.5 -342q0 -77 -19 -188l-45 -254q-29 -163 -85.5 -285.5t-135 -198t-171 -114.5t-202.5 -45l-24 -137q-11 -68 -11 -89q0 -52 34 -67.5t136 -15.5h43q37 0 37 -27v-6 l-4 -15q-6 -32 -45 -32h-43q-65 0 -105.5 5t-75 21.5t-50 49.5t-15.5 85q0 44 8 91l25 137q-179 12 -281 125t-102 327zM305 438q0 -195 92 -279.5t262 -84.5q201 0 341 135.5t192 423.5l45 254q18 108 18 192q0 102 -25.5 174.5t-74.5 114t-111 60t-143 18.5 q-98 0 -179 -28.5t-151.5 -91.5t-122 -173.5t-79.5 -265.5l-45 -254q-19 -117 -19 -195z" />
<glyph unicode="R" horiz-adv-x="1224" d="M170 33v6l256 1446q3 14 15.5 26t25.5 13q144 8 321 8q494 0 494 -318q0 -42 -10 -100l-2 -10q-38 -195 -146.5 -290t-292.5 -118l302 -637q6 -12 6 -24q0 -35 -35 -35h-21q-19 0 -30 18l-320 668h-94l-264 2l-115 -649q-3 -16 -14.5 -27.5t-26.5 -11.5h-20 q-13 0 -21 9.5t-8 23.5zM391 774q27 0 134 -1t137 -1q245 0 363 71t155 261l2 10q10 58 10 94q0 132 -101 185t-319 53q-180 0 -264 -8z" />
<glyph unicode="S" horiz-adv-x="1085" d="M152 39v4l4 27q5 24 30 24h11q229 -22 313 -22q93 0 169 18t138.5 56.5t97.5 107.5t35 162q0 82 -56.5 148t-207.5 169l-104 72q-133 91 -198 170.5t-65 177.5q0 89 31.5 157t83 109.5t124 67.5t146 35.5t158.5 9.5q75 0 301 -21q29 -3 29 -24v-4v-2l-4 -27 q-3 -27 -37 -27h-6q-241 19 -301 19q-55 0 -101.5 -4t-98.5 -14t-91.5 -30.5t-72.5 -50.5t-50.5 -77t-17.5 -107q0 -79 54 -143.5t169 -140.5l106 -72q167 -113 236.5 -200.5t69.5 -180.5q0 -115 -45.5 -202t-124 -137t-174.5 -74.5t-207 -24.5q-125 0 -314 22q-30 4 -30 29 z" />
<glyph unicode="T" horiz-adv-x="1169" d="M319 1466v7l5 18q6 31 45 31h968q15 0 24 -8.5t9 -20.5v-8l-4 -19q-6 -28 -43 -28h-438l-248 -1399q-3 -16 -15 -27.5t-26 -11.5h-21q-13 0 -20.5 9t-7.5 22v8l248 1399h-441q-15 0 -25 8t-10 20z" />
<glyph unicode="U" horiz-adv-x="1296" d="M244 381q0 69 16 160l166 942q3 16 14.5 27.5t26.5 11.5h20q13 0 21 -9.5t8 -23.5v-6l-166 -942q-16 -94 -16 -162q0 -155 78.5 -231t249.5 -76q396 0 477 469l166 942q3 16 15 27.5t26 11.5h20q13 0 21 -9.5t8 -23.5v-6l-166 -942q-47 -274 -186 -413.5t-396 -139.5 q-204 0 -303.5 102.5t-99.5 290.5z" />
<glyph unicode="V" horiz-adv-x="1290" d="M352 1470v11q0 41 33 41h25q10 0 18 -8.5t10 -20.5l174 -1378q5 -43 41 -43q39 0 60 43l659 1378q14 29 37 29h25q13 0 21.5 -8.5t8.5 -20.5q0 -11 -6 -23l-663 -1382q-47 -100 -148 -100q-108 0 -119 100z" />
<glyph unicode="W" horiz-adv-x="1613" d="M352 1475q0 19 11.5 33t29.5 14h17q30 0 30 -33l2 -1387q0 -30 11 -30q2 0 4 1t4 4t3 5.5t4 8.5t5 11l395 797q22 44 46.5 62t64.5 18q33 0 50.5 -19.5t23.5 -60.5l116 -797q3 -30 13 -30t20 30l492 1387q11 33 43 33h16q13 0 21 -8.5t8 -20.5q0 -6 -4 -18l-498 -1391 q-35 -96 -111 -96q-42 0 -59.5 24.5t-22.5 67.5l-110 792q-3 25 -12 25t-21 -25l-389 -792q-23 -44 -48 -68t-67 -24q-82 0 -82 96z" />
<glyph unicode="X" horiz-adv-x="1232" d="M86 23q0 17 16 36l607 725l-328 676q-12 24 -12 39q0 23 28 23h25q7 0 15.5 -6t11.5 -13l315 -651l545 651q16 19 37 19h18q27 0 27 -25q0 -19 -15 -37l-575 -686l346 -715q10 -20 10 -34q0 -25 -27 -25h-20q-7 0 -16.5 6t-12.5 12l-333 689l-578 -689q-15 -18 -37 -18 h-20q-27 0 -27 23z" />
<glyph unicode="Y" horiz-adv-x="1126" d="M354 1485q0 37 41 37h17q9 0 17 -7.5t11 -17.5l195 -717q12 -44 21 -57.5t28 -13.5t32.5 13t41.5 58l448 717q17 25 37 25h25q30 0 30 -23q0 -12 -12 -33l-448 -714q-60 -98 -119 -119l-105 -594q-3 -16 -14.5 -27.5t-26.5 -11.5h-20q-13 0 -21 9t-8 22v8l105 594 q-48 20 -74 119l-199 714q-2 6 -2 19z" />
<glyph unicode="Z" horiz-adv-x="1218" d="M168 92q0 38 22 66l996 1253q8 8 8 16q0 11 -14 11h-742q-14 0 -26.5 8.5t-12.5 21.5v2v3l4 20q3 14 18 21.5t32 7.5h727q51 0 78.5 -25t27.5 -63q0 -33 -26 -70l-992 -1251q-8 -8 -8 -17q0 -12 23 -12h784q15 0 27 -8.5t12 -20.5v-2v-2l-4 -20q-3 -14 -17 -22.5 t-32 -8.5h-789q-45 0 -70.5 27t-25.5 65z" />
<glyph unicode="a" horiz-adv-x="1032" d="M170 283q0 40 10 98l41 231q47 265 162 381.5t328 116.5q145 0 336 -39q26 -6 26 -24q0 -2 -1 -7t-1 -8l-174 -991q-3 -18 -15.5 -29.5t-29.5 -11.5h-16q-14 0 -22.5 9.5t-8.5 23.5q0 1 1 4t1 4l12 68q-76 -40 -116.5 -59.5t-109.5 -40.5t-126 -21q-133 0 -215 75 t-82 220zM260 283q0 -64 18 -108t51.5 -66.5t71 -31.5t86.5 -9q71 0 143.5 29t203.5 98l141 809q-156 26 -279 26q-166 0 -257 -104.5t-128 -313.5l-41 -231q-10 -58 -10 -98z" />
<glyph unicode="b" horiz-adv-x="1032" d="M154 49q0 11 2 17l250 1417q3 16 14.5 27.5t25.5 11.5h21q13 0 21 -9t8 -22v-6v-2l-70 -400q138 27 283 27q331 0 331 -342q0 -68 -12 -147l-22 -136q-40 -242 -154.5 -369.5t-327.5 -127.5q-155 0 -346 39q-24 5 -24 22zM250 94q156 -26 278 -26q173 0 262.5 103 t124.5 314l23 136q14 77 14 151q0 132 -61 195t-195 63q-131 0 -286 -31z" />
<glyph unicode="c" horiz-adv-x="894" d="M186 340q0 63 13 143l22 138q39 231 159.5 360t334.5 129q92 0 243 -18q19 -3 26 -9t7 -18v-6v-4l-2 -15q-3 -28 -41 -28h-6h-2q-141 18 -240 18q-166 0 -262 -111t-127 -298l-22 -138q-15 -103 -15 -149q0 -132 61 -199t195 -67q99 0 246 18h2h6q31 0 31 -23v-4v-2 l-2 -14q-3 -18 -12.5 -26t-32.5 -11q-158 -18 -252 -18q-170 0 -250 93.5t-80 258.5z" />
<glyph unicode="d" horiz-adv-x="1032" d="M186 346q0 59 13 139l22 136q42 251 164.5 370t325.5 119q144 0 278 -31l72 404q5 39 41 39h20q13 0 21 -9t8 -22v-6v-2l-250 -1417q-3 -19 -11 -26.5t-28 -12.5q-204 -39 -348 -39q-165 0 -246.5 96t-81.5 262zM274 334q0 -132 60 -199t192 -67q155 0 289 26l160 910 q-123 26 -279 26q-161 0 -256 -102.5t-129 -306.5l-22 -136q-15 -83 -15 -151z" />
<glyph unicode="e" horiz-adv-x="1046" d="M188 348q0 72 11 137l22 136q40 241 167.5 365t332.5 124q168 0 252 -94t84 -254q0 -59 -13 -139l-10 -56q-3 -17 -18 -28t-31 -11h-690l-6 -43q-13 -106 -13 -133q0 -157 77.5 -219.5t230.5 -62.5q145 0 311 32q6 2 18 2q25 0 25 -16q0 -10 -2 -14l-4 -15 q-6 -20 -13.5 -25.5t-33.5 -10.5q-179 -35 -314 -35q-178 0 -280.5 88t-102.5 272zM311 610h641l2 13q15 103 15 143q0 131 -62 197.5t-198 66.5q-313 0 -396 -409z" />
<glyph unicode="f" horiz-adv-x="772" d="M-18 -299q0 2 1 4.5t1 3.5l4 15q5 14 15 20t32 6h102q75 0 114 35t56 127l195 1104h-203q-33 0 -33 26v7l4 18q7 33 45 33h203l33 190q24 135 91 188.5t183 53.5q65 0 105 -6q37 -6 37 -25q0 -2 -1 -4.5t-1 -3.5l-4 -14q-9 -27 -48 -27h-102q-77 0 -115.5 -33t-54.5 -129 l-33 -190h244q15 0 24 -7.5t9 -19.5v-6l-4 -18q-7 -33 -45 -33h-244l-195 -1104q-25 -140 -90.5 -191t-183.5 -51q-65 0 -105 6q-36 6 -36 25z" />
<glyph unicode="g" horiz-adv-x="1032" d="M104 -344q0 1 1 4.5t1 5.5l3 10q6 29 34 29h9q147 -24 297 -24q89 0 144 12.5t97 48.5t66.5 95.5t44.5 160.5l4 20q-43 -13 -126.5 -21.5t-143.5 -8.5q-353 0 -353 340q0 68 15 153l24 140q25 142 67.5 237t107.5 150.5t145 78.5t190 23q149 0 316 -37q26 -6 26 -24 q0 -2 -1 -7t-1 -8l-182 -1036q-21 -121 -56.5 -199.5t-91.5 -121.5t-124 -59.5t-168 -16.5q-183 0 -310 26q-35 8 -35 29zM270 317q0 -79 20 -130t60.5 -76t86 -34t112.5 -9q50 0 131 10.5t135 23.5l160 899q-174 29 -256 29q-87 0 -149.5 -18t-115 -63t-87.5 -126t-56 -202 l-24 -140q-17 -107 -17 -164z" />
<glyph unicode="h" horiz-adv-x="1032" d="M150 31v6v2l256 1444q3 16 14.5 27.5t25.5 11.5h21q13 0 21 -9t8 -22v-6v-2l-72 -408q147 35 283 35q170 0 250.5 -79t80.5 -214q0 -42 -10 -100l-121 -678q-8 -39 -41 -39h-20q-13 0 -20 9t-7 22v6v2l121 678q10 62 10 100q0 108 -62 160.5t-196 52.5q-143 0 -282 -39 l-170 -952q-3 -16 -14.5 -27.5t-26.5 -11.5h-21q-13 0 -20.5 9t-7.5 22z" />
<glyph unicode="i" horiz-adv-x="417" d="M170 33v6l180 1022q3 16 14.5 27.5t26.5 11.5h23q26 0 26 -31v-8l-180 -1022q-3 -15 -16.5 -27t-28.5 -12h-12q-13 0 -23 10t-10 23zM399 1331v10l29 152q7 39 45 39h12q16 0 24.5 -9t8.5 -22v-8l-29 -152q-7 -38 -45 -38h-12q-33 0 -33 28z" />
<glyph unicode="j" horiz-adv-x="417" d="M-141 -365l2 19q2 14 8.5 19t26.5 5h90q72 0 101 27.5t46 118.5l217 1237q3 16 14.5 27.5t26.5 11.5h23q26 0 26 -29v-10l-217 -1237q-23 -127 -77 -175t-173 -48q-39 0 -86 6q-28 5 -28 24v4zM399 1331v10l29 152q7 39 45 39h12q16 0 24.5 -9t8.5 -22v-8l-29 -152 q-7 -38 -45 -38h-12q-33 0 -33 28z" />
<glyph unicode="k" horiz-adv-x="909" d="M150 33v6l256 1444q3 15 16.5 27t28.5 12h12q13 0 23 -10t10 -23v-6l-154 -862l588 471q24 18 57 18q37 0 37 -27q0 -22 -27 -43l-583 -462l413 -531q11 -15 11 -27q0 -14 -10.5 -23t-30.5 -9q-43 0 -62 24l-403 531l-92 -504q-3 -15 -16.5 -27t-28.5 -12h-13 q-13 0 -22.5 9.5t-9.5 23.5z" />
<glyph unicode="l" horiz-adv-x="417" d="M170 31v8l256 1444q3 16 14.5 27.5t26.5 11.5h20q13 0 21 -9t8 -22v-8l-256 -1444q-3 -16 -14.5 -27.5t-26.5 -11.5h-20q-13 0 -21 9t-8 22z" />
<glyph unicode="m" horiz-adv-x="1527" d="M150 31v8l180 1020q3 18 15.5 29.5t29.5 11.5h16q29 0 29 -31v-10l-6 -37q74 33 110.5 47.5t92 27.5t108.5 13q61 0 113.5 -20.5t81.5 -63.5q190 84 325 84q124 0 203.5 -64t79.5 -194q0 -22 -8 -80l-129 -733q-8 -39 -41 -39h-21q-29 0 -29 31v8l130 733q8 58 8 78 q0 96 -53.5 138t-153.5 42q-128 0 -283 -69q8 -31 8 -80q0 -39 -10 -101l-131 -741q-8 -39 -37 -39h-30q-23 0 -23 29v10l131 741q10 58 10 94q0 81 -38.5 118.5t-118.5 37.5q-115 0 -310 -86l-159 -905q-8 -39 -37 -39h-29q-24 0 -24 31z" />
<glyph unicode="n" horiz-adv-x="1067" d="M150 33v6l180 1020q3 18 15.5 29.5t29.5 11.5h16q13 0 21 -9t8 -22v-10l-6 -33q189 84 329 84t229 -72t89 -221q0 -40 -10 -98l-121 -680q-3 -16 -15.5 -27.5t-29.5 -11.5h-15q-13 0 -21.5 9.5t-8.5 23.5v6l121 680q8 44 8 92q0 115 -62 167t-168 52q-150 0 -340 -84 l-159 -907q-3 -15 -16.5 -27t-28.5 -12h-13q-13 0 -22.5 9.5t-9.5 23.5z" />
<glyph unicode="o" horiz-adv-x="1069" d="M184 346q0 55 13 131l24 144q84 489 510 489q171 0 258.5 -93t87.5 -261q0 -62 -12 -135l-25 -144q-83 -489 -508 -489q-170 0 -259 94t-89 264zM272 336q0 -133 65.5 -200.5t209.5 -67.5q170 0 269.5 108t133.5 301l25 144q14 89 14 141q0 133 -65 200.5t-207 67.5 q-168 0 -270.5 -109t-135.5 -300l-24 -144q-15 -96 -15 -141z" />
<glyph unicode="p" horiz-adv-x="1032" d="M80 -360l246 1392q3 19 9.5 27t26.5 12q191 39 353 39q165 0 246 -93.5t81 -256.5q0 -77 -14 -148l-24 -135q-46 -251 -165 -370t-323 -119q-139 0 -278 32l-68 -380q-3 -16 -14.5 -27.5t-26.5 -11.5h-20q-13 0 -21 9t-8 23v7zM252 98q143 -30 278 -30q160 0 253.5 103.5 t129.5 305.5l25 135q16 94 16 162q0 130 -61.5 193t-192.5 63q-127 0 -290 -31z" />
<glyph unicode="q" horiz-adv-x="1032" d="M182 326q0 68 15 151l24 135q91 498 484 498q151 0 342 -39q26 -6 26 -24q0 -2 -1 -7t-1 -8l-246 -1392q-3 -16 -15 -27.5t-26 -11.5h-20q-13 0 -21 9t-8 23v7l68 378q-135 -30 -258 -30q-363 0 -363 338zM272 334q0 -146 72 -207t201 -61q120 0 270 30l160 908 q-156 26 -270 26q-167 0 -261.5 -104.5t-132.5 -313.5l-24 -135q-15 -80 -15 -143z" />
<glyph unicode="r" horiz-adv-x="632" d="M150 33v6l180 1020q3 18 15.5 29.5t29.5 11.5h16q31 0 31 -29q0 -2 -1 -6t-1 -6l-8 -43q84 51 149.5 72.5t140.5 21.5q48 0 48 -25v-6l-2 -16q-3 -19 -15 -25t-39 -6q-124 0 -295 -96l-159 -897q-3 -15 -16.5 -27t-28.5 -12h-13q-13 0 -22.5 9.5t-9.5 23.5z" />
<glyph unicode="s" horiz-adv-x="901" d="M111 45v4l4 23q3 15 8 19.5t16 4.5t19 -2q180 -26 303 -26q144 0 221.5 56t77.5 183q0 50 -38 90t-140 101l-119 71q-96 59 -149.5 121.5t-53.5 140.5q0 77 29 133t80 87t112 45t135 14q142 0 295 -18q37 -4 37 -31v-4l-2 -17q-1 -18 -8 -23t-23 -5q-1 0 -8 1t-8 1 q-196 16 -283 16q-136 0 -201 -42t-65 -152q0 -51 41.5 -95t124.5 -96l123 -76q122 -75 166.5 -130.5t44.5 -131.5q0 -87 -33 -151t-92 -99.5t-129 -52t-154 -16.5q-148 0 -292 28q-39 10 -39 29z" />
<glyph unicode="t" horiz-adv-x="778" d="M266 1042v9l4 20q5 29 45 29h205l33 190q8 39 41 39h22q27 0 27 -29v-10l-33 -190h242q33 0 33 -25v-8l-4 -20q-6 -31 -45 -31h-242l-143 -807q-7 -40 -7 -55q0 -54 29 -70t94 -16h99q36 0 36 -23v-6l-2 -12q-3 -28 -41 -33q-47 -6 -106 -6q-98 0 -148.5 37t-50.5 120 q0 29 6 64l144 807h-205q-33 0 -33 26z" />
<glyph unicode="u" horiz-adv-x="1069" d="M203 281q0 49 8 98l123 682q3 16 15.5 27.5t29.5 11.5h14q13 0 22 -9.5t9 -23.5v-6l-123 -682q-8 -47 -8 -98q0 -215 229 -215q145 0 340 86l162 909q3 15 16.5 27t28.5 12h12q13 0 23 -10t10 -23v-6l-182 -1022q-3 -18 -15.5 -29.5t-29.5 -11.5h-17q-26 0 -26 33v6v2 l4 33q-194 -86 -330 -86q-139 0 -227 72.5t-88 222.5z" />
<glyph unicode="v" horiz-adv-x="983" d="M266 1049v8q0 43 37 43h21q27 0 30 -37l99 -924q7 -73 49 -73q18 0 33 15t36 58l426 924q15 37 43 37h29q25 0 25 -23q0 -5 -9 -28l-432 -932q-35 -76 -73 -102.5t-88 -26.5t-81.5 27t-39.5 102z" />
<glyph unicode="w" horiz-adv-x="1540" d="M287 1051v2q0 19 13.5 33t33.5 14h8q12 0 19.5 -9t7.5 -20l55 -948q2 -55 18 -55q11 0 35 53l361 790q37 78 100 78q31 0 51.5 -20t24.5 -58l82 -790q5 -53 20 -53t37 55l387 948q5 11 16.5 20t22.5 9h16q14 0 22.5 -9t8.5 -22q0 -6 -4 -18l-391 -949q-26 -60 -53.5 -87 t-69.5 -27q-48 0 -64.5 27.5t-23.5 93.5l-80 774q-2 24 -10 24q-9 0 -19 -24l-354 -774q-31 -66 -56 -93.5t-73 -27.5q-42 0 -60.5 27t-21.5 87z" />
<glyph unicode="x" horiz-adv-x="1009" d="M92 25q0 11 10 24l453 516l-260 486q-4 6 -4 22q0 27 31 27h20q22 0 33 -17l246 -448l391 448q14 17 41 17h18q29 0 29 -23q0 -18 -15 -33l-428 -487l271 -506q8 -16 8 -26q0 -25 -31 -25h-22q-24 0 -33 16l-254 473l-418 -473q-12 -16 -28 -16h-25q-33 0 -33 25z" />
<glyph unicode="y" horiz-adv-x="995" d="M14 -358l4 22q6 29 39 29h11q93 -12 129 -12q109 0 165.5 46t114.5 177l43 96h-24q-50 0 -73 22.5t-32 92.5l-112 936v6q0 19 12 31t31 12h14q10 0 17 -9t9 -20l111 -942q3 -32 9 -38.5t30 -6.5h47l455 989q4 10 17.5 18.5t25.5 8.5h22q25 0 25 -25q0 -11 -6 -26 l-541 -1164q-51 -111 -95.5 -168.5t-112 -86.5t-173.5 -29q-55 0 -125 12q-37 6 -37 25v4z" />
<glyph unicode="z" horiz-adv-x="913" d="M109 90q0 44 30 74l752 813q10 10 10 22q0 17 -24 17h-539q-35 0 -35 24v7l4 20q3 15 16 24t31 9h523q54 0 81 -23t27 -61q0 -52 -41 -96l-733 -797q-17 -21 -18 -25q0 -14 18 -14h594q14 0 25.5 -6.5t11.5 -18.5v-6l-4 -20q-3 -15 -16 -24t-31 -9h-592q-40 0 -65 26.5 t-25 63.5z" />
<glyph unicode="&#xad;" horiz-adv-x="704" d="M205 553v6l4 16q3 15 15.5 26t29.5 11h414q32 0 32 -30v-7l-4 -16q-7 -33 -45 -33h-413q-15 0 -24 7.5t-9 19.5z" />
<glyph unicode="&#x2000;" horiz-adv-x="766" />
<glyph unicode="&#x2001;" horiz-adv-x="1532" />
<glyph unicode="&#x2002;" horiz-adv-x="766" />
<glyph unicode="&#x2003;" horiz-adv-x="1532" />
<glyph unicode="&#x2004;" horiz-adv-x="510" />
<glyph unicode="&#x2005;" horiz-adv-x="383" />
<glyph unicode="&#x2006;" horiz-adv-x="255" />
<glyph unicode="&#x2007;" horiz-adv-x="255" />
<glyph unicode="&#x2008;" horiz-adv-x="191" />
<glyph unicode="&#x2009;" horiz-adv-x="306" />
<glyph unicode="&#x200a;" horiz-adv-x="85" />
<glyph unicode="&#x2010;" horiz-adv-x="704" d="M205 553v6l4 16q3 15 15.5 26t29.5 11h414q32 0 32 -30v-7l-4 -16q-7 -33 -45 -33h-413q-15 0 -24 7.5t-9 19.5z" />
<glyph unicode="&#x2011;" horiz-adv-x="704" d="M205 553v6l4 16q3 15 15.5 26t29.5 11h414q32 0 32 -30v-7l-4 -16q-7 -33 -45 -33h-413q-15 0 -24 7.5t-9 19.5z" />
<glyph unicode="&#x2012;" horiz-adv-x="704" d="M205 553v6l4 16q3 15 15.5 26t29.5 11h414q32 0 32 -30v-7l-4 -16q-7 -33 -45 -33h-413q-15 0 -24 7.5t-9 19.5z" />
<glyph unicode="&#x2013;" horiz-adv-x="1233" d="M205 553v6l8 16q6 15 32 26t61 11h857q66 0 66 -30v-7l-8 -16q-15 -33 -93 -33h-855q-31 0 -49.5 7.5t-18.5 19.5z" />
<glyph unicode="&#x2014;" horiz-adv-x="2257" d="M205 553v6l17 16q12 15 63.5 26t122.5 11h1713q132 0 132 -30v-7l-17 -16q-29 -33 -186 -33h-1708q-63 0 -100 7.5t-37 19.5z" />
<glyph unicode="&#x202f;" horiz-adv-x="306" />
<glyph unicode="&#x205f;" horiz-adv-x="383" />
<glyph unicode="&#x25fc;" horiz-adv-x="1095" d="M0 0v1096h1096v-1096h-1096z" />
</font>
</defs>
</svg>
