<?xml version="1.0" standalone="no"?>
<!DOCTYPE svg PUBLIC "-//W3C//DTD SVG 1.1//EN" "http://www.w3.org/Graphics/SVG/1.1/DTD/svg11.dtd" >
<svg xmlns="http://www.w3.org/2000/svg">
<metadata></metadata>
<defs>
<font id="neotechitalic" horiz-adv-x="1290" >
<font-face units-per-em="2048" ascent="1638" descent="-410" />
<missing-glyph horiz-adv-x="548" />
<glyph horiz-adv-x="2048" />
<glyph horiz-adv-x="2048" />
<glyph unicode="&#xd;" horiz-adv-x="2048" />
<glyph unicode=" "  horiz-adv-x="548" />
<glyph unicode="&#x09;" horiz-adv-x="548" />
<glyph unicode="&#xa0;" horiz-adv-x="548" />
<glyph unicode="&#x26;" horiz-adv-x="1335" d="M166 356q0 119 50 229.5t140 186.5q-38 57 -57.5 133t-19.5 144q0 489 622 489q96 0 225.5 -10t208.5 -23q17 -3 17 -16v-4l-33 -180q-1 -9 -9.5 -15t-17.5 -6h-389q-43 0 -72.5 -1t-65 -4.5t-59 -11.5t-49.5 -20t-42 -31t-30 -44.5t-20 -60.5t-6 -79q0 -72 29 -149h809 q15 0 25 -9.5t10 -23.5v-6l-29 -154q-3 -17 -16 -27t-31 -10h-152l-106 -612q-3 -15 -15.5 -26t-27.5 -13q-299 -18 -396 -18q-106 0 -194 22t-155.5 66t-105.5 116.5t-38 167.5zM449 395q0 -51 19.5 -84.5t58.5 -49.5t82 -22t106 -6h151l74 420h-389q-102 -120 -102 -258z " />
<glyph unicode="(" horiz-adv-x="681" d="M188 268q0 141 21 273l6 39q46 289 148.5 506t271.5 407q23 29 74 29h155q21 0 21 -17q0 -13 -17 -37q-304 -423 -376 -888l-7 -39q-30 -199 -30 -363q0 -290 86 -524q4 -8 4 -25q0 -28 -27 -28h-127q-50 0 -65 28q-68 127 -103 294t-35 345z" />
<glyph unicode=")" horiz-adv-x="681" d="M-12 -383q0 18 14 37q65 91 116.5 174.5t108.5 196.5t98.5 244.5t63.5 271.5l6 39q27 178 27 327q0 298 -96 561q-4 16 -4 25q0 29 28 29h154q50 0 65 -29q127 -240 127 -604q0 -159 -24 -309l-6 -39q-46 -292 -145.5 -508.5t-266.5 -403.5q-22 -28 -74 -28h-172 q-20 0 -20 16z" />
<glyph unicode="," horiz-adv-x="530" d="M-8 -174q0 4 4 16l201 430q19 39 49 39h196q23 0 23 -18q0 -9 -6 -21l-254 -430q-7 -13 -10 -17.5t-9 -11.5t-12 -9.5t-14 -2.5h-142q-12 0 -19 7t-7 18z" />
<glyph unicode="-" horiz-adv-x="657" d="M188 557v8l23 129q3 17 16.5 28t30.5 11h401q15 0 24 -8.5t9 -22.5v-8l-22 -129q-3 -17 -16 -27t-31 -10h-402q-15 0 -24 8.5t-9 20.5z" />
<glyph unicode="." horiz-adv-x="530" d="M141 33v8l39 231q3 17 17 28t32 11h183q32 0 32 -30v-9l-38 -231q-3 -17 -18 -29t-32 -12h-182q-15 0 -24 9.5t-9 23.5z" />
<glyph unicode="0" d="M211 475q0 82 20 209l27 152q28 161 72.5 281.5t101.5 200.5t132.5 129t160 70t190.5 21q204 0 318.5 -119t114.5 -360q0 -100 -21 -223l-27 -152q-34 -195 -90.5 -330t-139 -216.5t-186 -117.5t-241.5 -36q-200 0 -316 125.5t-116 365.5zM496 473q0 -141 49.5 -199.5 t138.5 -58.5q44 0 82.5 13t76.5 45.5t68.5 85t58 134.5t46.5 191l26 152q21 126 21 211q0 142 -50 201t-139 59q-56 0 -102.5 -22t-90.5 -73.5t-79 -146t-59 -229.5l-27 -152q-20 -120 -20 -211z" />
<glyph unicode="1" horiz-adv-x="864" d="M295 1145v8l33 178q3 15 18 23l363 159q21 9 49 9h135q15 0 24 -8.5t9 -22.5v-8l-254 -1442q-3 -17 -16.5 -29t-30.5 -12h-205q-14 0 -22.5 9.5t-8.5 23.5v8l209 1194l-258 -102q-18 -7 -27 -7q-18 0 -18 19z" />
<glyph unicode="2" d="M174 33v6v2l35 201q32 180 130 309.5t275 234.5l228 136q11 7 41 24t40.5 24t35 23t34.5 26t27.5 27t24.5 32.5t16.5 36t12.5 43.5t3 50q0 62 -48 84.5t-169 22.5q-137 0 -414 -31h-2h-2q-30 0 -30 33v6v2l22 123q6 29 45 39q84 22 202.5 36.5t217.5 14.5 q220 0 332 -77.5t112 -221.5q0 -82 -25.5 -154t-72.5 -131t-103.5 -105.5t-129.5 -90.5l-207 -123q-169 -101 -250 -186.5t-111 -206.5l-2 -9h674q15 0 25 -8.5t10 -21.5v-4v-2l-27 -156q-3 -17 -17.5 -29t-31.5 -12h-868q-15 0 -24 9.5t-9 23.5z" />
<glyph unicode="3" d="M184 68v6l23 127q6 37 43 37h4q39 -3 111 -10t109 -10t84.5 -6t82.5 -3q117 0 185.5 58.5t82.5 158.5l6 43q5 29 5 63q0 67 -34.5 105.5t-121.5 38.5h-363q-30 0 -30 31v6v2l22 129q3 17 15.5 28t29.5 11h363q101 0 152 49.5t71 150.5l6 33q6 30 6 60q0 67 -45 102 t-155 35q-51 0 -99.5 -2.5t-82 -5.5t-98 -9.5t-116.5 -11.5h-4q-30 0 -30 29v8l22 127q3 14 16 25t29 14q213 51 401 51q126 0 225.5 -37t161.5 -115t62 -188q0 -43 -8 -82l-6 -33q-20 -109 -74 -181t-156 -122q123 -88 123 -256v-16q0 -27 -2 -39l-6 -43 q-34 -235 -183.5 -338.5t-408.5 -103.5q-186 0 -385 51q-13 3 -23 12.5t-10 20.5z" />
<glyph unicode="4" d="M152 401v7l28 165q6 34 35 66l780 846q33 37 66 37h186q15 0 24 -9.5t9 -23.5v-8l-156 -889h152q15 0 24 -9.5t9 -23.5v-8l-25 -143q-3 -17 -16.5 -29t-30.5 -12h-152l-57 -326q-3 -18 -15.5 -29.5t-29.5 -11.5h-211q-13 0 -21 9t-8 22v10l58 326h-615q-15 0 -24.5 9.5 t-9.5 24.5zM459 600q0 -8 14 -8h369l92 520v6q0 6 -4 6q-5 0 -17 -12l-446 -498q-8 -8 -8 -14z" />
<glyph unicode="5" d="M186 70v6v4l21 121q3 15 14.5 26t26.5 11h4h2q229 -29 387 -29q127 0 195.5 72.5t95.5 203.5l2 11q6 38 6 63q0 34 -10.5 60.5t-25 44t-42.5 29.5t-51 18.5t-62.5 9.5t-64.5 3.5t-70 0.5h-280q-17 0 -17 23v6v2l195 729q5 15 18.5 26t28.5 11h744q15 0 24.5 -9.5 t9.5 -23.5v-4v-2l-28 -156q-3 -17 -16.5 -28t-30.5 -11h-555l-91 -340h48q87 0 162.5 -8.5t151.5 -33t129 -62.5t86.5 -101.5t33.5 -146.5q0 -63 -8 -100l-2 -11q-51 -255 -195 -378t-420 -123q-202 0 -385 51q-31 9 -31 35z" />
<glyph unicode="6" d="M215 449q0 76 16 167l41 236q33 191 90.5 323t144.5 212t197 115.5t257 35.5q188 0 372 -39q39 -7 39 -35v-8l-22 -127q-7 -43 -45 -43h-9q-62 10 -174.5 18.5t-199.5 8.5q-155 0 -235 -85t-120 -288q130 23 285 23q194 0 313 -89.5t119 -269.5v-10q0 -53 -6 -82l-4 -20 q-99 -508 -617 -508q-196 0 -319 119.5t-123 345.5zM489 424q0 -67 14 -111.5t43 -67.5t64 -31.5t86 -8.5q241 0 299 287l4 20q7 35 7 59q0 97 -59.5 141t-184.5 44q-111 0 -232 -23l-20 -117q-21 -117 -21 -192z" />
<glyph unicode="7" d="M242 25q0 13 8 24l805 1225l2 4q0 10 -10 10h-621q-15 0 -25 9t-10 22v6l29 158q3 17 16.5 28t30.5 11h854q31 0 50.5 -19.5t19.5 -48.5q0 -2 -1 -7t-1 -7l-21 -111q-4 -20 -53 -94l-764 -1196q-15 -23 -28 -31t-34 -8h-223q-24 0 -24 25z" />
<glyph unicode="8" d="M180 344q0 310 256 449q-127 95 -127 247q0 106 30.5 190.5t83.5 141.5t129 94.5t163.5 54.5t189.5 17h15q75 0 141 -11.5t125.5 -38t101.5 -66t67 -99t25 -133.5q0 -135 -60.5 -230t-184.5 -167q133 -102 133 -271q0 -138 -47 -243t-131.5 -168.5t-194 -95t-242.5 -31.5 h-20q-87 0 -167 23t-144.5 66.5t-103 113.5t-38.5 157zM461 385q0 -95 48 -141.5t161 -46.5h20q148 0 223.5 84t75.5 225q0 76 -42.5 127t-137.5 51h-84q-123 0 -193.5 -87t-70.5 -212zM573 1053q0 -74 46 -117t143 -43h84q119 0 192.5 77t73.5 195q0 164 -229 164h-15 q-137 0 -216 -72t-79 -204z" />
<glyph unicode="9" d="M184 57v9l23 127q7 43 45 43h8q62 -10 175 -18.5t200 -8.5q155 0 234.5 85t119.5 288q-130 -23 -284 -23q-126 0 -221 36t-153.5 118.5t-58.5 204.5v10q0 48 7 82l4 20q99 508 616 508q196 0 319 -119.5t123 -345.5q0 -77 -16 -168l-41 -235q-33 -191 -90.5 -323 t-144.5 -212t-196.5 -115.5t-256.5 -35.5q-189 0 -373 39q-39 7 -39 34zM551 950q0 -97 59.5 -140.5t184.5 -43.5q115 0 231 22l21 117q20 111 20 193q0 67 -14 111.5t-43 67.5t-64 31.5t-86 8.5q-241 0 -299 -287l-4 -20q-6 -30 -6 -60z" />
<glyph unicode="A" horiz-adv-x="1386" d="M162 33v6v2l184 1055q19 108 55 186t82.5 126t113.5 76t136 38t160 10h141q402 0 402 -324q0 -37 -11 -112l-184 -1055q-3 -17 -16.5 -29t-30.5 -12h-207q-13 0 -21 8.5t-8 22.5v6v4l95 541h-512l-95 -541q-3 -17 -16.5 -29t-30.5 -12h-206q-14 0 -22.5 9.5t-8.5 23.5z M584 821h512l47 275q8 58 8 75q0 63 -36 88t-124 25h-141q-107 0 -153.5 -40t-65.5 -148z" />
<glyph unicode="B" horiz-adv-x="1331" d="M170 84q0 9 4 33l227 1290q9 54 35 78.5t78 32.5q138 20 344 20q269 0 418 -86t149 -250q0 -41 -8 -80l-8 -41q-48 -231 -244 -309q73 -34 111.5 -103.5t38.5 -150.5q0 -39 -4 -57l-6 -35q-42 -238 -209 -340t-492 -102q-238 0 -350 22q-43 8 -63.5 25.5t-20.5 52.5z M477 223q25 0 86 -2t82 -2q191 0 277 50t104 161l4 27q4 32 4 47q0 170 -217 170h-260zM594 883h260q133 0 200 54t79 140l4 29q4 28 4 41q0 85 -73.5 120.5t-250.5 35.5q-41 0 -149 -5z" />
<glyph unicode="C" horiz-adv-x="1163" d="M207 461q0 56 14 149l51 301q107 627 691 627q103 0 193.5 -11.5t125.5 -21.5q37 -10 37 -37v-6v-4l-25 -137q-7 -43 -49 -43h-2h-2q-187 16 -317 16q-67 0 -123.5 -21t-105.5 -65.5t-84 -119.5t-52 -177l-51 -301q-12 -76 -12 -135q0 -137 62.5 -192.5t178.5 -55.5 q112 0 322 17h2h2q35 0 35 -31q0 -2 -1 -6t-1 -6l-25 -138q-4 -20 -16.5 -30t-36.5 -17q-40 -10 -132.5 -21t-195.5 -11q-69 0 -134 14.5t-129.5 50t-112.5 88.5t-77.5 136.5t-29.5 187.5z" />
<glyph unicode="D" horiz-adv-x="1366" d="M164 55q0 11 2 17l244 1378q6 30 20.5 44t42.5 19q52 8 179 16.5t229 8.5q260 0 402 -128.5t142 -358.5q0 -67 -12 -140l-51 -301q-54 -316 -241 -471t-513 -155q-103 0 -227 8t-172 16q-45 6 -45 47zM479 229q129 -6 170 -6q366 0 430 387l51 301q13 80 13 129 q0 147 -76.5 202.5t-226.5 55.5q-45 0 -174 -6z" />
<glyph unicode="E" horiz-adv-x="1179" d="M217 307q0 49 8 96l125 715q16 91 43 159.5t66 114t83 75t103.5 45t117 21t134.5 5.5q58 0 109.5 -1.5t84 -3.5t68 -6t49 -6t42 -6.5t32.5 -5.5q19 -3 27 -9t8 -19q0 -2 -1 -7t-1 -8l-23 -131q-3 -17 -17.5 -29t-31.5 -12h-418q-90 0 -131.5 -37.5t-60.5 -138.5l-39 -221 h555q15 0 25 -10.5t10 -24.5v-4v-2l-27 -147q-3 -17 -17.5 -29t-31.5 -12h-555l-45 -265q-6 -41 -6 -67q0 -60 32 -84.5t105 -24.5h418q15 0 24 -9t9 -23v-7v-2l-23 -131q-3 -21 -14 -30.5t-35 -12.5q-4 -1 -34.5 -5.5t-44.5 -6.5t-50.5 -5.5t-69 -5.5t-84.5 -3.5t-110 -1.5 q-89 0 -161.5 18t-128.5 55.5t-87 101t-31 148.5z" />
<glyph unicode="F" horiz-adv-x="1179" d="M162 33v8l188 1077q18 103 51.5 177t78.5 121t110.5 74.5t137.5 37.5t169 10q58 0 109.5 -1.5t84 -3.5t68 -6t49 -6t42 -6.5t32.5 -5.5q19 -3 27 -9t8 -19q0 -2 -1 -7t-1 -8l-23 -131q-3 -17 -17.5 -29t-31.5 -12h-418q-90 0 -131.5 -37.5t-60.5 -138.5l-39 -221h555 q15 0 25 -10t10 -25v-6l-27 -147q-3 -17 -17.5 -29t-31.5 -12h-555l-109 -627q-3 -17 -17.5 -29t-31.5 -12h-200q-15 0 -24 9.5t-9 23.5z" />
<glyph unicode="G" horiz-adv-x="1300" d="M207 465q0 73 14 147l51 295q26 153 81.5 268.5t121.5 183t150 109.5t158 56t155 14q230 0 434 -37q35 -6 35 -33q0 -2 -1 -5t-1 -5l-25 -137q-5 -23 -15.5 -33t-33.5 -10h-4h-2q-184 16 -412 16q-130 0 -225 -95.5t-129 -291.5l-51 -295q-12 -76 -12 -133 q0 -71 17.5 -122.5t48.5 -78.5t65 -39t75 -12q108 0 203 6l92 523q3 17 16.5 29t30.5 12h203q15 0 24 -9.5t9 -23.5v-6v-2l-121 -688q-6 -42 -47 -50q-180 -34 -453 -34q-55 0 -112.5 14t-119.5 49.5t-110 88t-79 138t-31 191.5z" />
<glyph unicode="H" horiz-adv-x="1458" d="M162 33v8l254 1442q3 17 16.5 28t30.5 11h203q15 0 24.5 -9t9.5 -24v-6l-100 -565h582l100 565q3 17 16.5 28t30.5 11h203q15 0 25 -9t10 -24v-6l-254 -1442q-3 -17 -17.5 -29t-31.5 -12h-203q-15 0 -24 9.5t-9 23.5v8l109 627h-582l-109 -627q-3 -17 -17.5 -29 t-31.5 -12h-202q-15 0 -24 9.5t-9 23.5z" />
<glyph unicode="I" horiz-adv-x="591" d="M162 33v8l254 1442q3 17 16.5 28t30.5 11h203q15 0 24.5 -9t9.5 -24v-6l-254 -1442q-3 -17 -17.5 -29t-31.5 -12h-202q-15 0 -24 9.5t-9 23.5z" />
<glyph unicode="J" horiz-adv-x="593" d="M-111 -381q0 15 17 39l153 223q65 95 89 161t45 183l223 1258q3 16 14.5 27.5t26.5 11.5h215q13 0 20.5 -9t7.5 -22v-8l-223 -1258q-28 -150 -57 -227t-101 -174l-129 -174q-22 -30 -36 -39.5t-35 -9.5h-207q-23 0 -23 18z" />
<glyph unicode="K" horiz-adv-x="1316" d="M162 33v8l252 1442q3 17 17 28t32 11h203q15 0 23.5 -8.5t8.5 -22.5v-8l-110 -631l600 653q15 17 51 17h250q35 0 35 -21q0 -16 -21 -37l-659 -680l397 -741q6 -12 6 -20q0 -23 -35 -23h-258q-32 0 -43 23l-346 698l-119 -680q-3 -17 -17.5 -29t-31.5 -12h-202 q-15 0 -24 9.5t-9 23.5z" />
<glyph unicode="L" horiz-adv-x="1056" d="M219 307q0 61 6 96l189 1078q3 17 17.5 29t31.5 12h203q15 0 23.5 -9.5t8.5 -23.5v-8l-188 -1078q-6 -41 -6 -69q0 -59 31 -83t104 -24h377q15 0 24 -9t9 -23v-9l-23 -131q-3 -21 -13.5 -29.5t-35.5 -13.5q-47 -10 -158.5 -19t-193.5 -9q-59 0 -112.5 8t-108.5 30.5 t-95 57.5t-65 93t-25 134z" />
<glyph unicode="M" horiz-adv-x="1622" d="M160 25v6l248 1409q6 34 34 58t62 24h158q25 0 43 -13.5t24 -35.5l199 -627l2.5 -7.5t2 -6.5t1.5 -5t2 -4.5t2.5 -3t2.5 -2t3 -0.5q10 0 29 29l420 627q14 22 36.5 35.5t47.5 13.5h178q31 0 50 -19t19 -49q0 -2 -1 -7t-1 -7l-247 -1409q-3 -14 -15 -22.5t-26 -8.5h-207 q-12 0 -18.5 9.5t-6.5 23.5v8l168 952q0 2 1 6.5t1 6.5q0 8 -4 8q-5 0 -14 -13l-264 -391q-21 -35 -72 -35h-207q-47 0 -59 35l-131 391q-4 13 -9 13t-8 -21l-168 -952q-3 -15 -15.5 -28t-25.5 -13h-207q-28 0 -28 25z" />
<glyph unicode="N" horiz-adv-x="1439" d="M162 33v6v2l237 1358q9 55 31 75.5t74 28.5q89 13 231 24t228 11q246 0 376.5 -99.5t130.5 -316.5q0 -77 -14 -157l-162 -924q-3 -17 -16.5 -29t-30.5 -12h-211q-28 0 -28 31v6v4l161 924q13 80 13 127q0 109 -55.5 154.5t-178.5 45.5q-144 0 -284 -16l-218 -1235 q-3 -17 -16.5 -29t-30.5 -12h-206q-14 0 -22.5 9.5t-8.5 23.5z" />
<glyph unicode="O" horiz-adv-x="1388" d="M209 465q0 78 14 158l47 276q24 141 70 250t107.5 182t143.5 119.5t173.5 67t202.5 20.5q223 0 354 -128t131 -359q0 -59 -14 -152l-47 -276q-24 -141 -70 -249.5t-107.5 -181.5t-143.5 -120t-174 -67.5t-202 -20.5q-225 0 -355 124t-130 357zM496 469q0 -130 58.5 -184 t182.5 -54q160 0 246.5 94.5t120.5 297.5l47 276q14 80 14 152q0 129 -58 184t-183 55q-160 0 -246 -91t-121 -300l-47 -276q-14 -83 -14 -154z" />
<glyph unicode="P" horiz-adv-x="1282" d="M162 33v6v2l248 1409q6 30 23.5 43t51.5 18q184 27 406 27q245 0 379.5 -95t134.5 -274v-32q0 -47 -6 -72l-4 -18q-25 -113 -74 -199t-110.5 -138.5t-143.5 -85t-164.5 -45t-181.5 -12.5q-23 0 -56.5 1.5t-71 3.5t-52.5 3l-95 -534q-3 -17 -16.5 -29t-30.5 -12h-204 q-15 0 -24 9.5t-9 23.5zM580 807q99 -6 182 -6q157 0 240 62.5t110 183.5l4 18q8 36 8 70q0 92 -64.5 130t-209.5 38q-101 0 -184 -9z" />
<glyph unicode="Q" horiz-adv-x="1390" d="M209 465q0 78 14 158l47 276q24 141 70 250t107.5 182t143.5 119.5t173.5 67t202.5 20.5q223 0 354 -128t131 -359q0 -59 -14 -152l-47 -276q-52 -302 -195.5 -452t-372.5 -179l-55 -311q-3 -18 -14.5 -29.5t-28.5 -11.5h-197q-30 0 -30 32v9l57 317q-163 34 -254.5 154 t-91.5 313zM496 469q0 -130 58.5 -184t182.5 -54q160 0 246.5 94.5t120.5 297.5l47 276q14 80 14 152q0 129 -58 184t-183 55q-160 0 -246 -91t-121 -300l-47 -276q-14 -83 -14 -154z" />
<glyph unicode="R" horiz-adv-x="1337" d="M162 33v6v2l248 1409q6 30 23.5 43t51.5 18q184 27 406 27q239 0 378.5 -94.5t139.5 -280.5t-94 -328t-268 -196l217 -598q2 -4 2 -10q0 -12 -9 -21.5t-22 -9.5h-236q-16 0 -23.5 9.5t-14.5 31.5l-195 547h-41q-42 0 -182 8l-97 -555q-3 -17 -16.5 -29t-30.5 -12h-204 q-15 0 -24 9.5t-9 23.5zM584 825q99 -6 182 -6q356 0 356 309q0 91 -67 128.5t-207 37.5q-108 0 -182 -8z" />
<glyph unicode="S" horiz-adv-x="1167" d="M145 55v6l27 148q3 16 15.5 27.5t29.5 11.5h4q60 -7 181 -14t180 -7q120 0 195 49.5t75 163.5q0 41 -31 80t-108 92l-242 162q-95 63 -137.5 153.5t-42.5 178.5q0 100 33.5 177t87.5 124t131.5 77.5t157.5 42t173 11.5q96 0 214.5 -12t173.5 -25q13 -3 21.5 -12t8.5 -21 v-6l-26 -151q-3 -15 -14.5 -26t-26.5 -11h-4q-222 20 -402 20q-36 0 -68.5 -4.5t-65 -16.5t-55.5 -31t-37.5 -49.5t-14.5 -70.5t30 -74t107 -81l221 -138q217 -133 217 -350q0 -105 -32 -189t-88.5 -140.5t-135 -94t-169 -54.5t-193.5 -17q-210 0 -357 36q-13 3 -23 12.5 t-10 22.5z" />
<glyph unicode="T" horiz-adv-x="1185" d="M285 1315v6l28 162q3 17 16.5 28t30.5 11h1002q15 0 25 -9t10 -24v-6l-29 -162q-3 -17 -16 -27t-31 -10h-358l-220 -1243q-3 -17 -17.5 -29t-31.5 -12h-202q-15 0 -24 9.5t-9 23.5v8l219 1243h-359q-15 0 -24.5 8.5t-9.5 22.5z" />
<glyph unicode="U" horiz-adv-x="1390" d="M197 410q0 75 14 149l164 924q3 17 16.5 28t30.5 11h203q15 0 24.5 -9.5t9.5 -23.5v-4v-2l-163 -924q-17 -100 -17 -153q0 -102 52.5 -144.5t179.5 -42.5q118 0 284 17l222 1247q3 17 15.5 28t29.5 11h202q15 0 25 -9.5t10 -23.5v-4v-2l-237 -1340q-10 -62 -41 -89.5 t-91 -35.5q-69 -9 -222.5 -21.5t-237.5 -12.5q-217 0 -345 105t-128 321z" />
<glyph unicode="V" horiz-adv-x="1343" d="M311 1477v4q0 17 13 29t30 12h211q13 0 22 -10.5t11 -24.5l80 -1231q2 -19 7 -26t20 -7t22.5 7t15.5 26l514 1231q6 14 19.5 24.5t26.5 10.5h223q13 0 21.5 -8.5t8.5 -20.5q0 -4 -4 -16l-561 -1284q-92 -209 -321 -209q-230 0 -248 209z" />
<glyph unicode="W" horiz-adv-x="1765" d="M270 135v15l43 1337q0 16 12.5 25.5t28.5 9.5h209q12 0 20.5 -10t8.5 -25v-2l-68 -1223v-6q0 -25 13 -25q2 0 4 1.5t3.5 4.5l3 6t3.5 9t4 10l301 719q38 92 145 92h142q60 0 84 -24.5t28 -67.5l52 -719v-10v-8q0 -13 6 -13q2 0 4 1.5t3.5 4.5t2.5 6l3 9t3 10l363 1223 q4 17 16 27t25 10h217q13 0 21.5 -6.5t8.5 -18.5q0 -6 -2 -10l-428 -1337q-30 -93 -80 -129.5t-133 -36.5h-104q-70 0 -102.5 37t-38.5 126l-43 676q-6 22 -9 23q-6 0 -8.5 -4t-9.5 -19l-281 -676q-36 -88 -82 -125.5t-116 -37.5h-117q-80 0 -118 33.5t-38 117.5z" />
<glyph unicode="X" horiz-adv-x="1310" d="M53 20q0 9 8 21l578 745l-313 697q-2 2 -2 8q0 12 11 21.5t25 9.5h207q30 0 47 -39l220 -488l366 488q30 39 60 39h231q12 0 20.5 -7.5t8.5 -17.5q0 -7 -7 -14l-569 -735l318 -707q2 -4 2 -10q0 -13 -10.5 -22t-28.5 -9h-207q-29 0 -45 41l-221 494l-373 -494 q-30 -41 -62 -41h-235q-29 0 -29 20z" />
<glyph unicode="Y" horiz-adv-x="1273" d="M315 1489q0 15 10 24t27 9h228q22 0 30 -33l176 -602l390 602q21 33 45 33h237q12 0 20.5 -6t8.5 -15t-10 -26l-590 -871l-99 -563q-3 -17 -16.5 -29t-30.5 -12h-211q-13 0 -20.5 9t-7.5 22v10l98 563l-283 871q-2 6 -2 14z" />
<glyph unicode="Z" horiz-adv-x="1224" d="M104 61q0 2 1 7t1 8l19 112q6 38 41 78l813 973q10 13 10 23q0 12 -18 12h-561q-15 0 -24 8.5t-9 20.5v8l31 172q3 17 15.5 28t29.5 11h825q42 0 69 -16.5t27 -47.5q0 -2 -1 -7t-1 -7l-20 -119q-5 -37 -43 -84l-799 -956q-12 -15 -12 -25t16 -10h623q15 0 23.5 -8.5 t8.5 -22.5v-6l-28 -172q-3 -17 -17.5 -29t-31.5 -12h-895q-93 0 -93 61z" />
<glyph unicode="a" horiz-adv-x="1191" d="M180 381q0 49 10 117l27 157q44 263 188 388.5t394 125.5q207 0 401 -53q27 -7 37 -16t10 -23q0 -10 -2 -16l-170 -969q-5 -24 -17 -35t-48 -20q-214 -53 -420 -53q-202 0 -306 108t-104 289zM449 379q0 -88 41.5 -131t138.5 -43q126 0 198 14l125 715q-65 14 -192 14 q-125 0 -186.5 -74t-86.5 -219l-26 -157q-12 -68 -12 -119z" />
<glyph unicode="b" horiz-adv-x="1181" d="M147 76q0 7 3 16l251 1426q3 17 17 29t31 12h188q15 0 25 -10t10 -25v-6l-66 -363q109 14 201 14q204 0 305.5 -104.5t101.5 -284.5q0 -71 -10 -125l-26 -157q-43 -258 -185.5 -386t-394.5 -128q-209 0 -403 53q-27 7 -37.5 16t-10.5 23zM442 219q65 -14 195 -14 q219 0 270 293l27 157q12 67 12 121q0 87 -41 129.5t-137 42.5q-98 0 -201 -14z" />
<glyph unicode="c" horiz-adv-x="958" d="M176 377q0 42 10 104l35 191q26 141 78.5 240t127 154t159.5 79t190 24q161 0 258 -26q20 -5 28.5 -12.5t8.5 -22.5q0 -12 -2 -18l-25 -134q-6 -30 -40 -30h-5h-2q-116 14 -262 14q-84 0 -150 -61t-93 -207l-35 -191q-11 -54 -11 -102q0 -95 43 -130.5t117 -35.5 q139 0 268 14h3h4q30 0 30 -24v-4v-2l-24 -134q-5 -26 -14.5 -36.5t-36.5 -16.5q-106 -26 -269 -26q-175 0 -283 109t-108 284z" />
<glyph unicode="d" horiz-adv-x="1181" d="M170 385q0 48 10 113l27 157q45 273 186.5 393.5t394.5 120.5q89 0 193 -14l66 363q3 17 16.5 29t30.5 12h188q15 0 25 -10t10 -25v-6l-252 -1426q-5 -24 -17.5 -35t-48.5 -20q-214 -53 -419 -53q-204 0 -307 111t-103 290zM438 371q0 -87 41 -126.5t139 -39.5 q127 0 199 14l125 715q-96 14 -192 14q-128 0 -187.5 -68.5t-85.5 -224.5l-26 -157q-13 -80 -13 -127z" />
<glyph unicode="e" horiz-adv-x="1175" d="M180 395q0 69 10 123l23 127q49 278 194.5 401t389.5 123q197 0 299 -115.5t102 -303.5q0 -52 -10 -117l-17 -98q-9 -52 -49 -52h-667q-11 -80 -11 -84q0 -184 209 -184q126 0 379 23h8q31 0 31 -23v-8l-24 -135q-5 -27 -14.5 -38.5t-37.5 -15.5q-106 -19 -191.5 -26.5 t-219.5 -7.5q-57 0 -112 12.5t-108.5 43.5t-93.5 76.5t-65 117.5t-25 161zM489 676h435q8 54 8 78q0 89 -45.5 135.5t-130.5 46.5q-220 0 -267 -260z" />
<glyph unicode="f" horiz-adv-x="776" d="M131 37v6l213 1212q17 96 53 162t90 101.5t116 50t145 14.5q119 0 217 -16q18 -3 24 -8.5t6 -16.5v-8l-20 -121q-6 -35 -37 -35h-178q-73 0 -102 -23.5t-42 -99.5l-18 -100h289q15 0 25 -10t10 -25v-6l-23 -123q-3 -17 -16.5 -28t-30.5 -11h-289l-160 -909 q-3 -17 -17.5 -30t-31.5 -13h-188q-15 0 -25 11t-10 26z" />
<glyph unicode="g" horiz-adv-x="1181" d="M106 -324q0 1 1.5 6t1.5 7l20 108q6 35 45 35h4q281 -25 375 -25q116 0 164.5 40t60.5 143l2 16q-105 -20 -186 -20q-92 0 -167 22t-133.5 67.5t-91 121t-32.5 176.5q0 69 10 125l27 157q48 280 187 397t394 117q203 0 402 -53q25 -7 36 -15t11 -26q0 -2 -1 -6.5t-1 -7.5 l-186 -1057q-20 -116 -55.5 -191.5t-97.5 -127t-154 -73.5t-226 -22q-222 0 -375 50q-35 12 -35 36zM436 369q0 -85 41 -124.5t141 -39.5q81 0 199 16l125 709q-83 18 -192 18q-123 0 -185 -70.5t-88 -222.5l-26 -157q-15 -92 -15 -129z" />
<glyph unicode="h" horiz-adv-x="1212" d="M141 35v8l260 1475q3 17 17 29t31 12h188q15 0 25 -10t10 -25v-6l-66 -369q102 20 201 20q200 0 306 -95.5t106 -250.5q0 -41 -9 -84l-123 -696q-3 -17 -17.5 -30t-31.5 -13h-188q-14 0 -23.5 10.5t-9.5 24.5v8l123 696q8 54 8 76q0 69 -41.5 99t-140.5 30 q-126 0 -199 -18l-155 -883q-3 -17 -18 -30t-32 -13h-188q-14 0 -23.5 10.5t-9.5 24.5z" />
<glyph unicode="i" horiz-adv-x="548" d="M147 35v8l189 1071q3 17 16.5 29t30.5 12h188q15 0 25 -10t10 -25v-6l-188 -1071q-3 -17 -17.5 -30t-31.5 -13h-189q-14 0 -23.5 10.5t-9.5 24.5zM371 1343v7l32 180q3 17 18 29t32 12h198q15 0 25 -10t10 -25v-6l-33 -180q-3 -17 -16.5 -29t-30.5 -12h-198 q-15 0 -26 9.5t-11 24.5z" />
<glyph unicode="j" horiz-adv-x="548" d="M-131 -360l22 133q6 32 50 32h92q47 0 64 22t28 87l211 1200q3 17 16.5 29t30.5 12h188q15 0 25 -10t10 -25v-6l-211 -1200q-31 -179 -119.5 -251.5t-240.5 -72.5q-57 0 -133 13q-33 6 -33 28v9zM373 1343v7l33 180q3 17 16.5 29t30.5 12h196q15 0 26 -10t11 -25v-6 l-33 -180q-3 -17 -17.5 -29t-31.5 -12h-196q-15 0 -25 9.5t-10 24.5z" />
<glyph unicode="k" horiz-adv-x="1124" d="M141 35v8l260 1475q3 17 17 29t31 12h188q15 0 25 -10t10 -25v-6l-148 -828l406 440q22 25 51 25h242q28 0 28 -18q0 -13 -12 -25l-491 -506l317 -565q2 -4 2 -12q0 -11 -10 -20t-23 -9h-233q-28 0 -51 41l-252 487l-86 -485q-3 -17 -18 -30t-32 -13h-188 q-14 0 -23.5 10.5t-9.5 24.5z" />
<glyph unicode="l" horiz-adv-x="557" d="M152 35v8l260 1475q3 17 16.5 29t30.5 12h190q15 0 24 -9.5t9 -23.5v-8l-260 -1475q-3 -18 -16.5 -30.5t-30.5 -12.5h-191q-14 0 -23 10.5t-9 24.5z" />
<glyph unicode="m" horiz-adv-x="1734" d="M141 35v8l129 735q37 211 158 301t326 90h49q172 0 254 -79q103 79 289 79h49q350 0 350 -303q0 -43 -10 -108l-125 -715q-3 -18 -16.5 -30.5t-30.5 -12.5h-193q-14 0 -22.5 10.5t-8.5 24.5v8l129 735q9 61 9 70q0 48 -27.5 72t-95.5 24h-49q-84 0 -116 -36.5t-48 -129.5 l-129 -735q-3 -18 -16.5 -30.5t-30.5 -12.5h-195q-14 0 -22.5 10.5t-8.5 24.5v8l129 735q9 56 9 70q0 96 -115 96h-49q-76 0 -115 -33.5t-57 -132.5l-129 -735q-3 -18 -16.5 -30.5t-30.5 -12.5h-193q-14 0 -22.5 10.5t-8.5 24.5z" />
<glyph unicode="n" horiz-adv-x="1191" d="M131 35v8l125 709q41 234 146 325.5t337 91.5h107q170 0 265 -97t95 -251q0 -49 -8 -90l-121 -688q-3 -18 -16.5 -30.5t-30.5 -12.5h-192q-14 0 -22.5 10.5t-8.5 24.5v8l125 709q8 54 8 75q0 55 -28.5 86t-98.5 31h-115q-86 0 -119 -40.5t-53 -151.5l-125 -709 q-3 -18 -16.5 -30.5t-30.5 -12.5h-192q-14 0 -22.5 10.5t-8.5 24.5z" />
<glyph unicode="o" horiz-adv-x="1175" d="M176 395q0 55 8 99l31 165q49 264 192 387t388 123q102 0 182 -32.5t128.5 -88.5t73.5 -128t25 -154q0 -49 -10 -107l-31 -165q-95 -510 -577 -510q-101 0 -181 33.5t-129 91.5t-74.5 131t-25.5 155zM446 403q0 -186 181 -186q108 0 174 68t92 209l31 165q8 44 8 91 q0 186 -178 186q-101 0 -172 -66.5t-97 -210.5l-30 -165q-9 -50 -9 -91z" />
<glyph unicode="p" horiz-adv-x="1181" d="M70 -365l249 1426q5 24 17.5 35t48.5 20q214 53 422 53q199 0 303 -107t104 -288q0 -51 -10 -119l-26 -157q-44 -265 -187 -389.5t-393 -124.5q-91 0 -195 14l-63 -363q-3 -17 -17.5 -29t-31.5 -12h-189q-15 0 -23.5 9.5t-8.5 23.5v6v2zM442 219q96 -14 195 -14 q122 0 184.5 79.5t85.5 213.5l27 157q12 67 12 121q0 87 -41 129.5t-137 42.5q-129 0 -201 -14z" />
<glyph unicode="q" horiz-adv-x="1181" d="M170 379q0 51 10 119l27 157q46 274 185.5 394t391.5 120q212 0 406 -53q27 -7 37 -16t10 -23q0 -10 -2 -16l-250 -1426q-3 -17 -17.5 -29t-31.5 -12h-188q-15 0 -24 9.5t-9 23.5v6v2l63 363q-109 -14 -198 -14q-190 0 -300 103.5t-110 291.5zM438 379q0 -88 41 -131 t139 -43q96 0 199 14l125 715q-65 14 -192 14q-128 0 -187.5 -68.5t-85.5 -224.5l-26 -157q-13 -70 -13 -119z" />
<glyph unicode="r" horiz-adv-x="714" d="M141 35v8l176 1006q6 42 68 61q105 32 200 45.5t226 13.5q53 0 53 -28v-6l-28 -156q-6 -37 -66 -37q-132 0 -203 -14l-155 -885q-3 -18 -16.5 -30.5t-30.5 -12.5h-191q-14 0 -23.5 10.5t-9.5 24.5z" />
<glyph unicode="s" horiz-adv-x="1001" d="M115 61v7v4l22 123q3 15 15 23.5t28 8.5h6q176 -22 328 -22q85 0 130.5 23.5t45.5 90.5q0 51 -67 99l-250 172q-60 41 -96.5 106.5t-36.5 137.5q0 78 26.5 138.5t68.5 96.5t100.5 59.5t115.5 32t121 8.5q194 0 362 -43q29 -9 29 -36v-7v-4l-21 -116q-6 -39 -38 -39h-7h-2 q-165 24 -323 24t-158 -94q0 -41 61 -84l240 -164q86 -59 119 -121t33 -137q0 -93 -36 -164.5t-99.5 -114t-143.5 -64t-174 -21.5q-223 0 -369 41q-30 9 -30 36z" />
<glyph unicode="t" horiz-adv-x="776" d="M168 219q0 31 6 72l182 1032q6 34 47 41l197 33h6q13 0 21 -10.5t8 -24.5v-6l-37 -201h289q15 0 25 -10.5t10 -24.5v-4v-2l-21 -121q-3 -17 -17.5 -29t-31.5 -12h-289l-117 -661q-4 -28 -4 -37q0 -36 24.5 -47.5t88.5 -11.5h162q37 0 37 -25v-6l-23 -127q-6 -31 -45 -37 q-102 -16 -242 -16q-125 0 -200.5 57.5t-75.5 177.5z" />
<glyph unicode="u" horiz-adv-x="1191" d="M199 367q0 61 12 131l108 614q3 18 16 30.5t30 12.5h192q14 0 23.5 -10.5t9.5 -24.5v-8l-113 -633q-10 -54 -10 -110q0 -85 38.5 -118.5t123.5 -33.5h12q100 0 158 56t84 206l112 633q3 18 15.5 30.5t29.5 12.5h193q14 0 23.5 -10.5t9.5 -24.5v-8l-115 -653 q-16 -92 -47 -166.5t-67.5 -123t-85 -84.5t-91.5 -55t-95 -30t-87.5 -13.5t-77.5 -2.5h-12q-41 0 -85 7t-101 32t-100 64.5t-73 112t-30 167.5z" />
<glyph unicode="v" horiz-adv-x="1128" d="M246 1108v4q0 18 12 30.5t27 12.5h196q14 0 24 -10.5t11 -30.5l45 -858q3 -51 31 -51q26 0 47 51l348 858q7 19 21 30t28 11h213q12 0 19.5 -7.5t7.5 -19.5t-4 -20l-422 -932q-86 -192 -289 -192t-221 192z" />
<glyph unicode="w" horiz-adv-x="1771" d="M211 379q0 71 14 145l105 592q3 17 17 28t30 11h184q15 0 25 -9.5t10 -23.5v-6l-104 -592q-13 -83 -13 -127q0 -35 6 -61.5t15 -44t26.5 -30t33 -19t42 -10t47 -4.5t53.5 -1h89l155 887q3 17 16.5 29t30.5 12h191q15 0 25 -10t10 -25v-6l-156 -887h88q36 0 57.5 1t51 5 t47.5 12t40.5 22t37.5 36t30.5 52.5t27.5 72.5t21 96l105 592q3 16 16.5 27.5t30.5 11.5h184q15 0 25 -9.5t10 -23.5v-6l-104 -592q-22 -127 -60 -222t-86.5 -155t-113 -97t-134 -51.5t-155.5 -14.5q-183 0 -289 53q-127 -53 -293 -53q-61 0 -116 12.5t-105.5 42.5 t-87.5 74.5t-58.5 112.5t-21.5 153z" />
<glyph unicode="x" horiz-adv-x="1140" d="M53 18q0 10 10 23l480 573l-248 500q-2 4 -2 12q0 11 9 20t22 9h213q17 0 25.5 -8.5t19.5 -32.5l155 -315l248 315q21 27 32.5 34t29.5 7h225q20 0 20 -18q0 -15 -8 -23l-440 -530l268 -543q2 -4 2 -12q0 -11 -8 -20t-21 -9h-213q-17 0 -26 7.5t-21 33.5l-178 360 l-287 -360q-21 -26 -33 -33.5t-30 -7.5h-223q-9 0 -15 5t-6 13z" />
<glyph unicode="y" horiz-adv-x="1222" d="M150 -311l20 108q7 35 43 35h4h2q281 -25 375 -25q63 0 100 8t61 32.5t35.5 54t26.5 88.5l4 16q-124 -22 -200 -22q-196 0 -304 106.5t-108 288.5q0 57 12 119l109 616q3 17 16.5 29t30.5 12h188q15 0 25 -10.5t10 -24.5v-4v-2l-108 -616q-13 -67 -13 -113 q0 -88 41.5 -134t138.5 -46q81 0 199 16l158 893q3 17 16.5 29t30.5 12h188q15 0 25 -10.5t10 -24.5v-4v-2l-196 -1110q-38 -216 -167 -315t-366 -99q-231 0 -375 50q-18 6 -25 13.5t-7 22.5v9v4z" />
<glyph unicode="z" horiz-adv-x="1003" d="M94 68q0 2 1 7t1 7l17 88q6 32 37 66l604 682q8 8 8 14q0 4 -10 4h-447q-14 0 -23.5 7.5t-9.5 19.5v6l27 145q3 17 16.5 29t30.5 12h692q30 0 50 -20t20 -50q0 -2 -1 -7t-1 -7l-21 -117q-7 -36 -18 -47l-580 -653q-6 -6 -6 -10t13 -4h434q13 0 21.5 -7.5t8.5 -19.5v-6 l-28 -166q-3 -17 -17.5 -29t-31.5 -12h-717q-31 0 -50.5 19.5t-19.5 48.5z" />
<glyph unicode="&#xad;" horiz-adv-x="657" d="M188 557v8l23 129q3 17 16.5 28t30.5 11h401q15 0 24 -8.5t9 -22.5v-8l-22 -129q-3 -17 -16 -27t-31 -10h-402q-15 0 -24 8.5t-9 20.5z" />
<glyph unicode="&#x2000;" horiz-adv-x="791" />
<glyph unicode="&#x2001;" horiz-adv-x="1583" />
<glyph unicode="&#x2002;" horiz-adv-x="791" />
<glyph unicode="&#x2003;" horiz-adv-x="1583" />
<glyph unicode="&#x2004;" horiz-adv-x="527" />
<glyph unicode="&#x2005;" horiz-adv-x="395" />
<glyph unicode="&#x2006;" horiz-adv-x="263" />
<glyph unicode="&#x2007;" horiz-adv-x="263" />
<glyph unicode="&#x2008;" horiz-adv-x="197" />
<glyph unicode="&#x2009;" horiz-adv-x="316" />
<glyph unicode="&#x200a;" horiz-adv-x="87" />
<glyph unicode="&#x2010;" horiz-adv-x="657" d="M188 557v8l23 129q3 17 16.5 28t30.5 11h401q15 0 24 -8.5t9 -22.5v-8l-22 -129q-3 -17 -16 -27t-31 -10h-402q-15 0 -24 8.5t-9 20.5z" />
<glyph unicode="&#x2011;" horiz-adv-x="657" d="M188 557v8l23 129q3 17 16.5 28t30.5 11h401q15 0 24 -8.5t9 -22.5v-8l-22 -129q-3 -17 -16 -27t-31 -10h-402q-15 0 -24 8.5t-9 20.5z" />
<glyph unicode="&#x2012;" horiz-adv-x="657" d="M188 557v8l23 129q3 17 16.5 28t30.5 11h401q15 0 24 -8.5t9 -22.5v-8l-22 -129q-3 -17 -16 -27t-31 -10h-402q-15 0 -24 8.5t-9 20.5z" />
<glyph unicode="&#x2013;" horiz-adv-x="1177" d="M188 557v8l47 129q6 17 33.5 28t61.5 11h815q30 0 48.5 -8.5t18.5 -22.5v-8l-45 -129q-6 -17 -32.5 -27t-62.5 -10h-817q-30 0 -48.5 8.5t-18.5 20.5z" />
<glyph unicode="&#x2014;" horiz-adv-x="2201" d="M188 557v8l93 129q13 17 67.5 28t123.5 11h1630q61 0 97.5 -8.5t36.5 -22.5v-8l-89 -129q-13 -17 -65.5 -27t-125.5 -10h-1634q-61 0 -97.5 8.5t-36.5 20.5z" />
<glyph unicode="&#x202f;" horiz-adv-x="316" />
<glyph unicode="&#x205f;" horiz-adv-x="395" />
<glyph unicode="&#x25fc;" horiz-adv-x="1157" d="M0 0v1157h1157v-1157h-1157z" />
</font>
</defs>
</svg>
